<?xml version="1.0" encoding="UTF-8"?>
<svg xmlns="http://www.w3.org/2000/svg" xmlns:xlink="http://www.w3.org/1999/xlink" width="128px" height="128px" viewBox="0 0 128 128" version="1.1">
<g id="surface1">
<path style=" stroke:none;fill-rule:nonzero;fill:rgb(67.843137%,41.568627%,15.294118%);fill-opacity:1;" d="M 76.503906 38.710938 L 65.574219 101.6875 C 65.574219 101.6875 63.914062 110.371094 56.238281 108.65625 C 48.5625 106.9375 50.375 99.894531 51.585938 94.484375 C 52.796875 89.078125 66.585938 37.265625 66.585938 37.265625 Z M 76.503906 38.710938 "/>
<path style=" stroke:none;fill-rule:nonzero;fill:rgb(52.941176%,29.803922%,8.627451%);fill-opacity:1;" d="M 52.394531 106.722656 C 60.070312 108.441406 61.730469 99.757812 61.730469 99.757812 L 72.429688 38.117188 L 76.503906 38.710938 L 65.574219 101.6875 C 65.574219 101.6875 63.914062 110.371094 56.238281 108.65625 C 54.472656 108.257812 53.210938 107.582031 52.324219 106.707031 C 52.347656 106.714844 52.371094 106.71875 52.394531 106.722656 Z M 52.394531 106.722656 "/>
<path style=" stroke:none;fill-rule:nonzero;fill:rgb(23.921569%,23.921569%,23.921569%);fill-opacity:1;" d="M 101.386719 51.226562 C 101.386719 51.226562 96.691406 31.691406 79.417969 27.492188 L 82.082031 34.363281 Z M 101.386719 51.226562 "/>
<path style=" stroke:none;fill-rule:nonzero;fill:rgb(34.901961%,34.901961%,34.117647%);fill-opacity:1;" d="M 101.582031 55.207031 C 101.582031 55.207031 97.414062 44.390625 84.882812 46.273438 L 86.539062 34.121094 C 86.539062 34.121094 102.328125 39.976562 101.582031 55.207031 Z M 101.582031 55.207031 "/>
<path style=" stroke:none;fill-rule:nonzero;fill:rgb(46.27451%,47.058824%,45.882353%);fill-opacity:1;" d="M 76.296875 25.5625 C 65.816406 23.757812 56.691406 23.125 55.359375 24.714844 C 54.027344 26.308594 54.035156 40.390625 54.035156 40.390625 C 58.21875 49.496094 60.726562 48.886719 60.726562 48.886719 L 86.773438 33.839844 C 80.375 25.636719 76.296875 25.5625 76.296875 25.5625 Z M 76.296875 25.5625 "/>
<path style=" stroke:none;fill-rule:nonzero;fill:rgb(43.137255%,43.137255%,42.352941%);fill-opacity:1;" d="M 55.433594 24.644531 C 57.6875 26.945312 60.515625 30.304688 61.304688 33.351562 C 62.269531 37.070312 60.671875 44.183594 59.28125 48.191406 C 58.136719 47.371094 56.324219 45.320312 53.984375 40.230469 C 53.984375 40.230469 54.027344 26.308594 55.359375 24.714844 C 55.378906 24.691406 55.410156 24.667969 55.433594 24.644531 Z M 55.433594 24.644531 "/>
<path style=" stroke:none;fill-rule:nonzero;fill:rgb(34.901961%,34.901961%,34.117647%);fill-opacity:1;" d="M 43.863281 40.65625 L 51.691406 41.59375 C 54.921875 41.976562 57.855469 39.671875 58.238281 36.441406 L 58.25 36.339844 C 58.636719 33.109375 56.332031 30.179688 53.101562 29.792969 L 45.269531 28.859375 "/>
<path style=" stroke:none;fill-rule:nonzero;fill:rgb(23.921569%,23.921569%,23.921569%);fill-opacity:1;" d="M 43.082031 44.503906 C 46.148438 44.957031 49.285156 40.96875 50.078125 35.59375 C 50.875 30.222656 49.03125 25.496094 45.960938 25.042969 L 40.738281 24.070312 L 37.855469 43.53125 Z M 43.082031 44.503906 "/>
<path style=" stroke:none;fill-rule:nonzero;fill:rgb(46.27451%,47.058824%,45.882353%);fill-opacity:1;" d="M 33.738281 32.976562 C 32.945312 38.351562 34.789062 43.078125 37.859375 43.53125 C 40.925781 43.984375 44.0625 39.996094 44.855469 34.621094 C 45.652344 29.25 43.808594 24.523438 40.738281 24.070312 C 37.667969 23.617188 34.535156 27.601562 33.738281 32.976562 Z M 33.738281 32.976562 "/>
<path style=" stroke:none;fill-rule:nonzero;fill:rgb(37.647059%,37.647059%,37.254902%);fill-opacity:1;" d="M 80.832031 50.425781 L 60.726562 48.886719 C 60.726562 48.886719 59.554688 49.167969 57.480469 46.445312 C 57.335938 41.828125 59.34375 33.953125 60.46875 32.238281 C 61.890625 30.066406 86.773438 33.839844 86.773438 33.839844 C 86.773438 33.839844 85.753906 43.886719 84.902344 47.640625 C 84.144531 50.972656 80.832031 50.425781 80.832031 50.425781 Z M 80.832031 50.425781 "/>
<path style=" stroke:none;fill-rule:nonzero;fill:rgb(29.411765%,29.803922%,29.411765%);fill-opacity:1;" d="M 57.722656 46.488281 L 78.980469 48.117188 C 78.980469 48.117188 82.601562 48.714844 83.28125 45.171875 C 83.789062 42.53125 84.535156 37.019531 84.933594 33.570312 C 86.085938 33.734375 86.773438 33.839844 86.773438 33.839844 C 86.773438 33.839844 85.675781 43.871094 84.902344 47.640625 C 84.199219 51.058594 80.832031 50.425781 80.832031 50.425781 L 60.726562 48.886719 C 60.726562 48.886719 59.566406 49.160156 57.515625 46.492188 C 57.652344 46.503906 57.722656 46.488281 57.722656 46.488281 Z M 57.722656 46.488281 "/>
</g>
</svg>
